<svg width="40" height="40" viewBox="0 0 40 40" fill="none" xmlns="http://www.w3.org/2000/svg">
<path fill-rule="evenodd" clip-rule="evenodd" d="M10.1538 9.77253C10.0001 10.5453 10.0001 11.4746 10.0001 13.3333V16.3849C10.0001 17.7738 10.0001 18.4682 9.88391 19.1424C9.79365 19.6663 9.65141 20.1798 9.4593 20.6754C9.21204 21.3133 8.85476 21.9088 8.14019 23.0998L8.14018 23.0998L6.81752 25.3043C6.01178 26.6472 5.60892 27.3187 5.89615 27.826C6.18338 28.3333 6.96642 28.3333 8.53252 28.3333H31.4677C33.0338 28.3333 33.8169 28.3333 34.1041 27.826C34.3913 27.3186 33.9884 26.6472 33.1827 25.3043L31.86 23.0998L31.86 23.0998C31.1454 21.9088 30.7881 21.3134 30.5409 20.6754C30.3487 20.1798 30.2065 19.6663 30.1162 19.1424C30.0001 18.4682 30.0001 17.7737 30.0001 16.3848V15.2836C30.0001 15.1169 30.0001 15.0336 29.95 14.9888C29.9 14.9441 29.8125 14.9539 29.6376 14.9736C29.4831 14.991 29.326 14.9999 29.1668 14.9999C26.8656 14.9999 25.0001 13.1344 25.0001 10.8333C25.0001 8.91618 26.2948 7.30151 28.0575 6.81587C28.2768 6.75545 28.3865 6.72524 28.4114 6.64828C28.4363 6.57131 28.3709 6.48982 28.24 6.32684C27.0863 4.88933 25.4457 3.86191 23.5608 3.48697C22.788 3.33325 21.8587 3.33325 20.0001 3.33325C18.1414 3.33325 17.2121 3.33325 16.4393 3.48697C13.2658 4.11822 10.785 6.599 10.1538 9.77253Z" fill="#B3CD98"/>
<circle cx="29.1665" cy="10.8333" r="2.5" fill="white"/>
<path d="M24.0165 29.9999C24.0993 29.9999 24.1669 30.0671 24.1623 30.1499C24.1156 30.9794 23.6832 31.7673 22.9461 32.3569C22.1647 32.9821 21.1049 33.3333 19.9998 33.3333C18.8948 33.3333 17.835 32.9821 17.0536 32.3569C16.3164 31.7673 15.884 30.9794 15.8374 30.1499C15.8327 30.0671 15.9003 29.9999 15.9832 29.9999L19.9998 29.9999L24.0165 29.9999Z" fill="#B3CD98"/>
</svg>
