<?xml version="1.0" encoding="utf-8"?>
<!-- Generator: Adobe Illustrator 24.3.0, SVG Export Plug-In . SVG Version: 6.00 Build 0)  -->
<svg version="1.1" id="Слой_1" xmlns="http://www.w3.org/2000/svg" xmlns:xlink="http://www.w3.org/1999/xlink" x="0px" y="0px"
	 viewBox="0 0 1440 1024" style="enable-background:new 0 0 1440 1024;" xml:space="preserve">
<style type="text/css">
	.st0{fill:#B3CD98;}
	.st1{fill:#FFFFFF;}
	.st2{fill:#407A61;}
	.st3{fill:none;stroke:#407A61;}
	.st4{fill:#407A61;fill-opacity:0.7;}
	.st5{fill:none;stroke:#B3CD98;}
	.st6{fill:#275362;}
	.st7{fill:none;stroke:#000000;stroke-miterlimit:10;}
	.st8{fill:#275362;fill-opacity:0.53;}
</style>
<path class="st0" d="M183.5,109.5h1073c16.57,0,30,13.43,30,30v745c0,16.57-13.43,30-30,30h-1073c-16.57,0-30-13.43-30-30v-745
	C153.5,122.93,166.93,109.5,183.5,109.5z"/>
<path class="st1" d="M183.52,110h568c16.57,0,30,13.43,30,30V883.5c0,16.57-13.43,30-30,30h-568c-16.57,0-30-13.43-30-30V140
	C153.52,123.43,166.95,110,183.52,110z"/>
<path class="st0" d="M154.02,160.66c0,36.05,0,66.13,0,87.08c0,48.74-0.5,87-0.5,118.78c0,30.56-2.75,100.81,54,100.81
	c81,0,105.96-96.07,79-114.29c-97.5-65.88-24.5-146.73,18-107.14c71.81,66.9,218.5,44.75,178-48.57c-81.69-50.39,17-87.34-73-87.34
	l-214,0h0c-15.75,0-27,0-34.5,10.48c-3.39,3.92-7,9.48-7,17.97L154.02,160.66z"/>
<path class="st0" d="M230.52,914.5c0-21.75,146.53-138.54-29.96-165.5c-45.12-6.89-35.09-40.74-35.09-55.79
	c0-40.66,60.05-59.21,158.05,0c69.48,41.98-111.5,125.64,80,166.37c64.55,13.73,119-1,133-118.78s260.21-160.11,187-74.86
	c-30,34.93-60,129.76,22,149.72c52.54,12.79,13.16,69.01-33.52,98.83h-88.59c-48.27-31.6-70.23-19.93-95.15,0H230.52z"/>
<path class="st2" d="M783.52,298.65c-149,7.98-160-56.7-160-86.01c0-15.77,74.4-66.28,48.05-103.13h32.13
	c-9.92,29.35-10.27,55.2,79.82,74.36L783.52,298.65z"/>
<path class="st3" d="M154.52,461.34c6,11.31,26.4,33.94,60,33.94c42,0,33-63.88,27-75.86c-6-11.98-35-37.93-15-73.86
	s49-42.92,62-40.92s30,2.99,30,21.96c0,18.96-25,13.97-30,6.99s-12-32.94-6-51.9c6-18.96,30-45.92,79-39.93
	c49,5.99,111.75,34.14,138,16.97c29-18.96,47.53-62.93,13-75.86c-40-14.97-44-30.94-62-50.91l-13-20.96"/>
<path class="st4" d="M594.95,670.24c-17.88,12.62-40.5,34.93-46.5,58.39c-6,23.46-18,79.35-5,90.83c13,11.48,81.5-27.95,73.5-79.85
	c-1.67-10.85,22.11-70.25,69-77.36c26.1-3.96,63.89-25.72,11.69-29.13C654.45,630.32,617.3,654.47,594.95,670.24z"/>
<path class="st4" d="M251.02,110.49c0,54.9-36,76.36-96.5,110.79v-25.45c10.43-3.48,57-34.44,43-85.34H251.02z"/>
<path class="st3" d="M153.52,636.02c-0.33-7.32,12.2-19.76,65-10.98c66,10.98,76,82.85,93,120.78c17,37.93,62,68.87,98,81.85
	s106,5.99,146,83.84"/>
<path class="st5" d="M782.52,287.66c-2.67-10.98-14.4-31.74-40-26.95c-32,5.99-4,36.93,7,26.95c11-9.98-34-15.97-41-7.98
	s22,4.99,16-12.98c-6-17.97-41-28.95-44-20.96s27.28-0.44,26-5.99c-1.5-6.49-14.2-13.48-49-25.45c-34.8-11.98-36.67-90.17-38-104.31
	"/>
<path class="st6" d="M364.62,582.5v14h-1.4v-12.68h-7.2v12.68h-1.4v-14H364.62z M377.6,595.24c-1.01,1-2.25,1.5-3.72,1.5
	c-1.47,0-2.71-0.5-3.74-1.5c-1.01-1.01-1.52-2.26-1.52-3.74s0.51-2.72,1.52-3.72c1.03-1.01,2.27-1.52,3.74-1.52
	c1.47,0,2.71,0.51,3.72,1.52c1.03,1,1.54,2.24,1.54,3.72S378.63,594.23,377.6,595.24z M371.08,594.32c0.76,0.76,1.69,1.14,2.8,1.14
	c1.11,0,2.04-0.38,2.8-1.14c0.76-0.77,1.14-1.71,1.14-2.82s-0.38-2.04-1.14-2.8c-0.76-0.77-1.69-1.16-2.8-1.16
	c-1.11,0-2.04,0.39-2.8,1.16c-0.76,0.76-1.14,1.69-1.14,2.8S370.32,593.55,371.08,594.32z M387.61,596.74c-1.51,0-2.76-0.5-3.76-1.5
	c-1-1.01-1.5-2.26-1.5-3.74s0.5-2.72,1.5-3.72c1-1.01,2.25-1.52,3.76-1.52c0.99,0,1.87,0.24,2.66,0.72c0.79,0.47,1.36,1.1,1.72,1.9
	l-1.08,0.62c-0.27-0.6-0.7-1.07-1.3-1.42c-0.59-0.36-1.25-0.54-2-0.54c-1.11,0-2.04,0.39-2.8,1.16c-0.76,0.76-1.14,1.69-1.14,2.8
	s0.38,2.05,1.14,2.82c0.76,0.76,1.69,1.14,2.8,1.14c0.75,0,1.41-0.17,2-0.52c0.59-0.36,1.05-0.84,1.38-1.44l1.1,0.64
	c-0.41,0.8-1.02,1.43-1.82,1.9C389.47,596.51,388.58,596.74,387.61,596.74z M402.59,586.5v1.28h-3.54v8.72h-1.32v-8.72h-3.54v-1.28
	H402.59z M414.01,586.5h1.32v10h-1.32v-1.96c-0.92,1.47-2.27,2.2-4.04,2.2c-1.43,0-2.65-0.51-3.66-1.52c-1-1.01-1.5-2.25-1.5-3.72
	s0.5-2.71,1.5-3.72c1.01-1.01,2.23-1.52,3.66-1.52c1.77,0,3.12,0.73,4.04,2.2V586.5z M407.27,594.32c0.76,0.76,1.69,1.14,2.8,1.14
	c1.11,0,2.04-0.38,2.8-1.14c0.76-0.77,1.14-1.71,1.14-2.82s-0.38-2.04-1.14-2.8c-0.76-0.77-1.69-1.16-2.8-1.16
	c-1.11,0-2.04,0.39-2.8,1.16c-0.76,0.76-1.14,1.69-1.14,2.8S406.51,593.55,407.27,594.32z M426.08,591.36
	c1.09,0.4,1.64,1.18,1.64,2.34c0,0.81-0.27,1.49-0.82,2.02c-0.53,0.52-1.31,0.78-2.32,0.78h-4.86v-10h4.46
	c0.97,0,1.73,0.25,2.26,0.76c0.53,0.49,0.8,1.13,0.8,1.92C427.24,590.18,426.86,590.91,426.08,591.36z M424.18,587.78h-3.14v3.04
	h3.14c1.16,0,1.74-0.52,1.74-1.56c0-0.47-0.15-0.83-0.46-1.08C425.17,587.91,424.74,587.78,424.18,587.78z M424.58,595.22
	c0.59,0,1.03-0.14,1.34-0.42c0.32-0.28,0.48-0.67,0.48-1.18c0-0.47-0.16-0.83-0.48-1.1c-0.31-0.28-0.75-0.42-1.34-0.42h-3.54v3.12
	H424.58z M446.62,596.5h-2.58l-4.1-4.62v4.62h-2.16v-10h2.16v4.42l3.88-4.42h2.64l-4.4,4.9L446.62,596.5z M455.34,586.24
	c1.37,0,2.55,0.51,3.52,1.54c0.97,1.01,1.46,2.25,1.46,3.72c0,1.48-0.49,2.73-1.46,3.74c-0.97,1.01-2.15,1.52-3.52,1.52
	c-1.52,0-2.69-0.56-3.5-1.68v5.42h-2.16v-14h2.16v1.44C452.65,586.81,453.82,586.24,455.34,586.24z M452.74,593.8
	c0.6,0.6,1.35,0.9,2.26,0.9s1.66-0.3,2.26-0.9c0.6-0.61,0.9-1.38,0.9-2.3s-0.3-1.68-0.9-2.28c-0.6-0.61-1.35-0.92-2.26-0.92
	s-1.66,0.31-2.26,0.92c-0.6,0.6-0.9,1.36-0.9,2.28S452.14,593.19,452.74,593.8z M471.79,586.5h2.16v10h-2.16v-1.44
	c-0.81,1.13-1.98,1.7-3.5,1.7c-1.37,0-2.55-0.51-3.52-1.52c-0.97-1.03-1.46-2.27-1.46-3.74c0-1.48,0.49-2.73,1.46-3.74
	c0.97-1.01,2.15-1.52,3.52-1.52c1.52,0,2.69,0.56,3.5,1.68V586.5z M466.37,593.8c0.6,0.6,1.35,0.9,2.26,0.9
	c0.91,0,1.66-0.3,2.26-0.9c0.6-0.61,0.9-1.38,0.9-2.3s-0.3-1.68-0.9-2.28c-0.6-0.61-1.35-0.92-2.26-0.92
	c-0.91,0-1.66,0.31-2.26,0.92c-0.6,0.6-0.9,1.36-0.9,2.28S465.77,593.19,466.37,593.8z M486.97,586.5v10h-2.16v-7.96h-4.58v7.96
	h-2.16v-10H486.97z M499.92,596.5h-2.58l-4.1-4.62v4.62h-2.16v-10h2.16v4.42l3.88-4.42h2.64l-4.4,4.9L499.92,596.5z M509.52,586.5
	h2.3l-3.84,10.32c-0.47,1.27-1.12,2.21-1.96,2.84c-0.84,0.63-1.81,0.91-2.92,0.84v-2.02c0.68,0.04,1.23-0.1,1.64-0.42
	c0.43-0.31,0.77-0.81,1.02-1.5l0.06-0.14l-4.2-9.92h2.3l3.04,7.28L509.52,586.5z M528.71,586.5h1.4l-4.28,10.92
	c-0.39,0.99-0.94,1.76-1.66,2.32c-0.71,0.57-1.5,0.83-2.38,0.76v-1.24c1.2,0.13,2.11-0.56,2.74-2.08l0.26-0.62l-4.48-10.06h1.4
	l3.76,8.38L528.71,586.5z M544.56,596.74c-1.51,0-2.76-0.5-3.76-1.5c-1-1.01-1.5-2.26-1.5-3.74s0.5-2.72,1.5-3.72
	c1-1.01,2.25-1.52,3.76-1.52c0.99,0,1.87,0.24,2.66,0.72c0.79,0.47,1.36,1.1,1.72,1.9l-1.08,0.62c-0.27-0.6-0.7-1.07-1.3-1.42
	c-0.59-0.36-1.25-0.54-2-0.54c-1.11,0-2.04,0.39-2.8,1.16c-0.76,0.76-1.14,1.69-1.14,2.8s0.38,2.05,1.14,2.82
	c0.76,0.76,1.69,1.14,2.8,1.14c0.75,0,1.41-0.17,2-0.52c0.59-0.36,1.05-0.84,1.38-1.44l1.1,0.64c-0.41,0.8-1.02,1.43-1.82,1.9
	C546.42,596.51,545.54,596.74,544.56,596.74z M558.9,591.36c1.09,0.4,1.64,1.18,1.64,2.34c0,0.81-0.27,1.49-0.82,2.02
	c-0.53,0.52-1.31,0.78-2.32,0.78h-4.86v-10H557c0.97,0,1.73,0.25,2.26,0.76c0.53,0.49,0.8,1.13,0.8,1.92
	C560.06,590.18,559.67,590.91,558.9,591.36z M557,587.78h-3.14v3.04H557c1.16,0,1.74-0.52,1.74-1.56c0-0.47-0.15-0.83-0.46-1.08
	C557.98,587.91,557.56,587.78,557,587.78z M557.4,595.22c0.59,0,1.03-0.14,1.34-0.42c0.32-0.28,0.48-0.67,0.48-1.18
	c0-0.47-0.16-0.83-0.48-1.1c-0.31-0.28-0.75-0.42-1.34-0.42h-3.54v3.12H557.4z M572.52,595.24c-1.01,1-2.25,1.5-3.72,1.5
	c-1.47,0-2.71-0.5-3.74-1.5c-1.01-1.01-1.52-2.26-1.52-3.74s0.51-2.72,1.52-3.72c1.03-1.01,2.27-1.52,3.74-1.52
	c1.47,0,2.71,0.51,3.72,1.52c1.03,1,1.54,2.24,1.54,3.72S573.54,594.23,572.52,595.24z M566,594.32c0.76,0.76,1.69,1.14,2.8,1.14
	c1.11,0,2.04-0.38,2.8-1.14c0.76-0.77,1.14-1.71,1.14-2.82s-0.38-2.04-1.14-2.8c-0.76-0.77-1.69-1.16-2.8-1.16
	c-1.11,0-2.04,0.39-2.8,1.16c-0.76,0.76-1.14,1.69-1.14,2.8S565.24,593.55,566,594.32z M577.27,584.74
	c-0.17,0.17-0.39,0.26-0.64,0.26c-0.25,0-0.47-0.09-0.64-0.26c-0.17-0.17-0.26-0.39-0.26-0.64c0-0.25,0.09-0.47,0.26-0.64
	c0.17-0.17,0.39-0.26,0.64-0.26c0.25,0,0.47,0.09,0.64,0.26c0.17,0.17,0.26,0.39,0.26,0.64
	C577.53,584.35,577.44,584.57,577.27,584.74z M581.07,584.74c-0.17,0.17-0.39,0.26-0.64,0.26c-0.25,0-0.47-0.09-0.64-0.26
	c-0.17-0.17-0.26-0.39-0.26-0.64c0-0.25,0.09-0.47,0.26-0.64c0.17-0.17,0.39-0.26,0.64-0.26c0.25,0,0.47,0.09,0.64,0.26
	c0.17,0.17,0.26,0.39,0.26,0.64C581.33,584.35,581.24,584.57,581.07,584.74z M577.86,596.5v-10h1.32v10H577.86z M591.99,596.5h-1.58
	l-3.12-4.12l-3.12,4.12h-1.58l3.92-5.18l-3.66-4.82h1.58l2.86,3.78l2.86-3.78h1.58l-3.64,4.82L591.99,596.5z M363.79,619.74
	c-1.51,0-2.76-0.5-3.76-1.5c-1-1.01-1.5-2.26-1.5-3.74s0.5-2.72,1.5-3.72c1-1.01,2.25-1.52,3.76-1.52c0.99,0,1.87,0.24,2.66,0.72
	c0.79,0.47,1.36,1.1,1.72,1.9l-1.08,0.62c-0.27-0.6-0.7-1.07-1.3-1.42c-0.59-0.36-1.25-0.54-2-0.54c-1.11,0-2.04,0.39-2.8,1.16
	c-0.76,0.76-1.14,1.69-1.14,2.8s0.38,2.05,1.14,2.82c0.76,0.76,1.69,1.14,2.8,1.14c0.75,0,1.41-0.17,2-0.52
	c0.59-0.36,1.05-0.84,1.38-1.44l1.1,0.64c-0.41,0.8-1.02,1.43-1.82,1.9C365.65,619.51,364.77,619.74,363.79,619.74z M378.77,609.5
	v1.28h-3.54v8.72h-1.32v-8.72h-3.54v-1.28H378.77z M389.97,618.24c-1.01,1-2.25,1.5-3.72,1.5c-1.47,0-2.71-0.5-3.74-1.5
	c-1.01-1.01-1.52-2.26-1.52-3.74s0.51-2.72,1.52-3.72c1.03-1.01,2.27-1.52,3.74-1.52c1.47,0,2.71,0.51,3.72,1.52
	c1.03,1,1.54,2.24,1.54,3.72S391,617.23,389.97,618.24z M383.45,617.32c0.76,0.76,1.69,1.14,2.8,1.14c1.11,0,2.04-0.38,2.8-1.14
	c0.76-0.77,1.14-1.71,1.14-2.82s-0.38-2.04-1.14-2.8c-0.76-0.77-1.69-1.16-2.8-1.16c-1.11,0-2.04,0.39-2.8,1.16
	c-0.76,0.76-1.14,1.69-1.14,2.8S382.69,616.55,383.45,617.32z M399.98,619.74c-1.51,0-2.76-0.5-3.76-1.5c-1-1.01-1.5-2.26-1.5-3.74
	s0.5-2.72,1.5-3.72c1-1.01,2.25-1.52,3.76-1.52c0.99,0,1.87,0.24,2.66,0.72c0.79,0.47,1.36,1.1,1.72,1.9l-1.08,0.62
	c-0.27-0.6-0.7-1.07-1.3-1.42c-0.59-0.36-1.25-0.54-2-0.54c-1.11,0-2.04,0.39-2.8,1.16c-0.76,0.76-1.14,1.69-1.14,2.8
	s0.38,2.05,1.14,2.82c0.76,0.76,1.69,1.14,2.8,1.14c0.75,0,1.41-0.17,2-0.52c0.59-0.36,1.05-0.84,1.38-1.44l1.1,0.64
	c-0.41,0.8-1.02,1.43-1.82,1.9C401.84,619.51,400.95,619.74,399.98,619.74z M414.77,609.5h1.4l-4.28,10.92
	c-0.39,0.99-0.94,1.76-1.66,2.32c-0.71,0.57-1.5,0.83-2.38,0.76v-1.24c1.2,0.13,2.11-0.56,2.74-2.08l0.26-0.62l-4.48-10.06h1.4
	l3.76,8.38L414.77,609.5z M426.44,609.5h1.32v10h-1.32v-4.36h-5.76v4.36h-1.32v-10h1.32v4.36h5.76V609.5z M440.23,619.5h-1.76
	l-5-4.82v4.82h-1.32v-10h1.32v4.42l4.76-4.42h1.8l-5.16,4.8L440.23,619.5z M451.24,609.5h1.32v10h-1.32v-1.96
	c-0.92,1.47-2.27,2.2-4.04,2.2c-1.43,0-2.65-0.51-3.66-1.52c-1-1.01-1.5-2.25-1.5-3.72s0.5-2.71,1.5-3.72
	c1.01-1.01,2.23-1.52,3.66-1.52c1.77,0,3.12,0.73,4.04,2.2V609.5z M444.5,617.32c0.76,0.76,1.69,1.14,2.8,1.14
	c1.11,0,2.04-0.38,2.8-1.14c0.76-0.77,1.14-1.71,1.14-2.82s-0.38-2.04-1.14-2.8c-0.76-0.77-1.69-1.16-2.8-1.16
	c-1.11,0-2.04,0.39-2.8,1.16c-0.76,0.76-1.14,1.69-1.14,2.8S443.74,616.55,444.5,617.32z M465.35,619.5h-1.58l-3.12-4.12l-3.12,4.12
	h-1.58l3.92-5.18l-3.66-4.82h1.58l2.86,3.78l2.86-3.78h1.58l-3.64,4.82L465.35,619.5z M480.51,614.36c1.16,0.44,1.74,1.24,1.74,2.4
	c0,0.83-0.33,1.53-0.98,2.12c-0.64,0.57-1.56,0.86-2.76,0.86c-2.01,0-3.33-0.8-3.96-2.4l1.12-0.66c0.41,1.19,1.36,1.78,2.84,1.78
	c0.77,0,1.37-0.17,1.78-0.5c0.43-0.33,0.64-0.76,0.64-1.28c0-0.47-0.17-0.85-0.52-1.14c-0.35-0.29-0.81-0.44-1.4-0.44h-1.46v-1.28
	h1.06c0.57,0,1.02-0.14,1.34-0.42c0.33-0.29,0.5-0.69,0.5-1.2c0-0.48-0.19-0.87-0.58-1.18c-0.39-0.32-0.91-0.48-1.56-0.48
	c-1.25,0-2.09,0.5-2.5,1.5l-1.1-0.64c0.67-1.43,1.87-2.14,3.6-2.14c1.05,0,1.89,0.28,2.52,0.84c0.63,0.55,0.94,1.22,0.94,2.02
	C481.77,613.15,481.35,613.89,480.51,614.36z M501.05,609.5h1.32v10h-1.32v-1.96c-0.92,1.47-2.27,2.2-4.04,2.2
	c-1.43,0-2.65-0.51-3.66-1.52c-1-1.01-1.5-2.25-1.5-3.72s0.5-2.71,1.5-3.72c1.01-1.01,2.23-1.52,3.66-1.52
	c1.77,0,3.12,0.73,4.04,2.2V609.5z M494.32,617.32c0.76,0.76,1.69,1.14,2.8,1.14c1.11,0,2.04-0.38,2.8-1.14
	c0.76-0.77,1.14-1.71,1.14-2.82s-0.38-2.04-1.14-2.8c-0.76-0.77-1.69-1.16-2.8-1.16c-1.11,0-2.04,0.39-2.8,1.16
	c-0.76,0.76-1.14,1.69-1.14,2.8S493.55,616.55,494.32,617.32z M514.97,609.5v10h-1.32v-8.72h-4.52v4.46c0,1.67-0.32,2.81-0.96,3.44
	c-0.63,0.63-1.49,0.9-2.6,0.82v-1.24c0.76,0.08,1.32-0.1,1.68-0.54c0.37-0.44,0.56-1.27,0.56-2.48v-5.74H514.97z M523.99,609.26
	c1.48,0,2.67,0.53,3.58,1.58c0.92,1.04,1.38,2.27,1.38,3.7c0,0.15-0.01,0.35-0.04,0.62h-8.78c0.13,1.01,0.56,1.82,1.28,2.42
	c0.73,0.59,1.63,0.88,2.7,0.88c0.76,0,1.41-0.15,1.96-0.46c0.56-0.32,0.98-0.73,1.26-1.24l1.16,0.68c-0.44,0.71-1.04,1.27-1.8,1.68
	s-1.63,0.62-2.6,0.62c-1.57,0-2.85-0.49-3.84-1.48c-0.99-0.99-1.48-2.24-1.48-3.76c0-1.49,0.49-2.74,1.46-3.74
	C521.2,609.76,522.45,609.26,523.99,609.26z M523.99,610.54c-1.04,0-1.91,0.31-2.62,0.94c-0.69,0.61-1.11,1.41-1.24,2.4h7.46
	c-0.13-1.05-0.54-1.87-1.22-2.46C525.69,610.83,524.89,610.54,523.99,610.54z M538.01,609.26c1.43,0,2.64,0.51,3.64,1.52
	c1.01,1.01,1.52,2.25,1.52,3.72s-0.51,2.71-1.52,3.72c-1,1.01-2.21,1.52-3.64,1.52c-1.77,0-3.12-0.73-4.04-2.2v5.96h-1.32v-14h1.32
	v1.96C534.89,609.99,536.23,609.26,538.01,609.26z M535.11,617.32c0.76,0.76,1.69,1.14,2.8,1.14c1.11,0,2.04-0.38,2.8-1.14
	c0.76-0.77,1.14-1.71,1.14-2.82s-0.38-2.04-1.14-2.8c-0.76-0.77-1.69-1.16-2.8-1.16c-1.11,0-2.04,0.39-2.8,1.16
	c-0.76,0.76-1.14,1.69-1.14,2.8S534.35,616.55,535.11,617.32z M553.36,609.5v1.28h-5.08v8.72h-1.32v-10H553.36z M557.91,607.1
	c-0.19,0.19-0.41,0.28-0.68,0.28c-0.27,0-0.49-0.09-0.68-0.28c-0.19-0.19-0.28-0.41-0.28-0.68c0-0.27,0.09-0.49,0.28-0.68
	c0.19-0.19,0.41-0.28,0.68-0.28c0.27,0,0.49,0.09,0.68,0.28s0.28,0.41,0.28,0.68C558.19,606.69,558.1,606.91,557.91,607.1z
	 M556.57,619.5v-10h1.32v10H556.57z M570.13,616.44l1.14,0.66c-0.35,0.81-0.92,1.46-1.72,1.94c-0.79,0.47-1.72,0.7-2.8,0.7
	c-1.52,0-2.75-0.49-3.68-1.48c-0.92-1-1.38-2.25-1.38-3.76s0.46-2.75,1.38-3.74c0.92-1,2.13-1.5,3.64-1.5c1,0,1.89,0.23,2.68,0.7
	c0.8,0.47,1.4,1.11,1.8,1.92l-1.16,0.66c-0.28-0.61-0.71-1.1-1.3-1.46c-0.59-0.36-1.26-0.54-2.02-0.54c-1,0-1.83,0.31-2.5,0.94
	c-0.65,0.61-1.04,1.41-1.16,2.38h4.98v1.28h-4.98c0.13,0.97,0.53,1.77,1.2,2.4c0.67,0.61,1.5,0.92,2.5,0.92
	c0.85,0,1.57-0.18,2.16-0.54C569.5,617.55,569.9,617.05,570.13,616.44z M583.21,609.26c1.47,0,2.71,0.51,3.72,1.52
	c1.03,1,1.54,2.24,1.54,3.72s-0.51,2.73-1.54,3.74c-1.01,1-2.25,1.5-3.72,1.5c-1.35,0-2.51-0.43-3.48-1.3
	c-0.96-0.88-1.51-1.98-1.66-3.3h-2.08v4.36h-1.32v-10h1.32v4.36h2.08c0.15-1.32,0.7-2.41,1.66-3.28
	C580.7,609.7,581.86,609.26,583.21,609.26z M580.41,617.32c0.76,0.76,1.69,1.14,2.8,1.14c1.11,0,2.04-0.38,2.8-1.14
	c0.76-0.77,1.14-1.71,1.14-2.82s-0.38-2.04-1.14-2.8c-0.76-0.77-1.69-1.16-2.8-1.16c-1.11,0-2.04,0.39-2.8,1.16
	c-0.76,0.76-1.14,1.69-1.14,2.8S579.65,616.55,580.41,617.32z"/>
<path class="st6" d="M437.42,418.5l-1.3-3.44h-6.64l-1.3,3.44h-1.48l5.38-14h1.44l5.38,14H437.42z M429.98,413.74h5.64l-2.82-7.5
	L429.98,413.74z M440.5,418.5v-14.6h1.32v14.6H440.5z M444.62,418.5v-14.6h1.32v14.6H444.62z M453.36,408.26
	c1.48,0,2.67,0.53,3.58,1.58c0.92,1.04,1.38,2.27,1.38,3.7c0,0.15-0.01,0.35-0.04,0.62h-8.78c0.13,1.01,0.56,1.82,1.28,2.42
	c0.73,0.59,1.63,0.88,2.7,0.88c0.76,0,1.41-0.15,1.96-0.46c0.56-0.32,0.98-0.73,1.26-1.24l1.16,0.68c-0.44,0.71-1.04,1.27-1.8,1.68
	s-1.63,0.62-2.6,0.62c-1.57,0-2.85-0.49-3.84-1.48s-1.48-2.24-1.48-3.76c0-1.49,0.49-2.74,1.46-3.74S451.83,408.26,453.36,408.26z
	 M453.36,409.54c-1.04,0-1.91,0.31-2.62,0.94c-0.69,0.61-1.11,1.41-1.24,2.4h7.46c-0.13-1.05-0.54-1.87-1.22-2.46
	C455.06,409.83,454.27,409.54,453.36,409.54z M461.74,410.16c0.61-1.21,1.67-1.82,3.16-1.82v1.28c-0.91,0-1.66,0.27-2.26,0.8
	c-0.6,0.53-0.9,1.37-0.9,2.52v5.56h-1.32v-10h1.32V410.16z M474.7,408.5h1.32v9.6c0,1.44-0.49,2.57-1.48,3.4s-2.17,1.24-3.54,1.24
	c-2.35,0-3.93-0.81-4.74-2.44l1.16-0.66c0.6,1.21,1.79,1.82,3.58,1.82c1.15,0,2.05-0.31,2.7-0.92c0.67-0.6,1-1.41,1-2.44v-1.56
	c-0.92,1.47-2.27,2.2-4.04,2.2c-1.43,0-2.65-0.51-3.66-1.52c-1-1.01-1.5-2.25-1.5-3.72s0.5-2.71,1.5-3.72
	c1.01-1.01,2.23-1.52,3.66-1.52c1.77,0,3.12,0.73,4.04,2.2V408.5z M467.96,416.32c0.76,0.76,1.69,1.14,2.8,1.14s2.04-0.38,2.8-1.14
	c0.76-0.77,1.14-1.71,1.14-2.82s-0.38-2.04-1.14-2.8c-0.76-0.77-1.69-1.16-2.8-1.16s-2.04,0.39-2.8,1.16
	c-0.76,0.76-1.14,1.69-1.14,2.8S467.2,415.55,467.96,416.32z M486.02,408.5h1.4l-4.28,10.92c-0.39,0.99-0.94,1.76-1.66,2.32
	c-0.71,0.57-1.5,0.83-2.38,0.76v-1.24c1.2,0.13,2.11-0.56,2.74-2.08l0.26-0.62l-4.48-10.06h1.4l3.76,8.38L486.02,408.5z
	 M488.9,418.38c-0.21,0.21-0.47,0.32-0.78,0.32c-0.31,0-0.57-0.11-0.78-0.32c-0.21-0.21-0.32-0.47-0.32-0.78s0.11-0.57,0.32-0.78
	c0.21-0.21,0.47-0.32,0.78-0.32c0.31,0,0.57,0.11,0.78,0.32c0.21,0.21,0.32,0.47,0.32,0.78S489.11,418.17,488.9,418.38z
	 M496.51,408.26c1.21,0,2.17,0.37,2.86,1.12c0.71,0.73,1.06,1.73,1.06,2.98v6.14h-1.32v-6.14c0-0.89-0.24-1.59-0.72-2.08
	c-0.47-0.49-1.13-0.74-2-0.74c-0.96,0-1.74,0.31-2.34,0.92c-0.6,0.6-0.9,1.53-0.9,2.8v5.24h-1.32v-10h1.32v1.56
	C493.89,408.86,495.01,408.26,496.51,408.26z M507.6,408.26c1.48,0,2.67,0.53,3.58,1.58c0.92,1.04,1.38,2.27,1.38,3.7
	c0,0.15-0.01,0.35-0.04,0.62h-8.78c0.13,1.01,0.56,1.82,1.28,2.42c0.73,0.59,1.63,0.88,2.7,0.88c0.76,0,1.41-0.15,1.96-0.46
	c0.56-0.32,0.98-0.73,1.26-1.24l1.16,0.68c-0.44,0.71-1.04,1.27-1.8,1.68s-1.63,0.62-2.6,0.62c-1.57,0-2.85-0.49-3.84-1.48
	s-1.48-2.24-1.48-3.76c0-1.49,0.49-2.74,1.46-3.74C504.81,408.76,506.07,408.26,507.6,408.26z M507.6,409.54
	c-1.04,0-1.91,0.31-2.62,0.94c-0.69,0.61-1.11,1.41-1.24,2.4h7.46c-0.13-1.05-0.54-1.87-1.22-2.46
	C509.3,409.83,508.51,409.54,507.6,409.54z M519.67,409.78h-2.88v6.06c0,0.55,0.11,0.94,0.32,1.18c0.21,0.23,0.53,0.35,0.96,0.36
	c0.43,0,0.96-0.01,1.6-0.04v1.16c-1.4,0.21-2.45,0.11-3.16-0.3c-0.69-0.41-1.04-1.2-1.04-2.36v-6.06h-2.1v-1.28h2.1v-2.4l1.32-0.4
	v2.8h2.88V409.78z"/>
<path class="st0" d="M539.5,493.35c0,38.45-33.83,65.41-72.35,65.41c-38.51,0-73.65-20.98-73.65-59.43
	c0-20.11,7.12-67.02,22.23-70.92c13.78-3.56,24.41,35.79,48.38,33.18c12.71-1.38,16.7-0.87,27.02-19.25
	C519.89,391.1,539.5,458.42,539.5,493.35z"/>
<path class="st7" d="M456.78,539.49c2.07-4.47,5.98-10.89,13.08-15.75c6.33-4.33,12.39-5.5,18.43-6.67
	c8.04-1.55,14.86-1.4,19.46-0.99c-1.12,2.55-7.94,17.47-24.9,23.24C470.88,543.4,460.5,540.67,456.78,539.49z"/>
<path class="st7" d="M447.55,544.78c9.31-26.87,22.06-37.24,32.25-41.67c17.31-7.52,31.79-0.74,44.37-11.06
	c10.63-8.71,12.55-23.81,12.67-34.45"/>
<path class="st7" d="M536.83,456.08c1.51,4.05,10.51,29.58-3.43,55.83c-13.67,25.73-39.16,32.9-46.42,34.6
	c-17.74,4.16-32.56,0.46-39.44-1.73"/>
<path class="st7" d="M447.55,544.78c-0.42-28.09,7.82-41.13,15.81-47.81c20.86-17.47,54.81-4.69,67.98-24.36
	c4.18-6.25,4.63-13.33,4.39-18.22c3.11,4.68,15.54,24.5,10.71,49.8c-1.1,5.77-4.31,18.14-14.48,29.79
	c-15.48,17.72-35.74,20.77-40.21,21.34C468.53,558.27,451.63,547.54,447.55,544.78z"/>
<path class="st7" d="M553.45,491.64c0,38.5-31.31,69.7-69.94,69.7c-38.61,0-69.93-31.2-69.93-69.7c0-19.64,8.14-37.38,21.26-50.04
	c-12.78,19.99-21.19,45.9-12.56,70.73c2.56,7.36,7.89,18.35,20.02,29.17c0.2-15.43,3.18-35.74,17.57-48.52
	c22.36-19.88,53.77-5.16,66.55-23.95c6.28-9.24,2.68-18.68,1.38-31.32C543.46,450.46,553.45,469.89,553.45,491.64z"/>
<path class="st8" d="M425.72,534.9c-11.14,0.17-20.37-12.99-20.62-29.39c-0.25-16.4,10.08-40.15,21.22-40.32
	c34.74,2.79,38.35,26.83,11.43,39.83C423.47,513.11,436.86,534.73,425.72,534.9z"/>
<path class="st8" d="M519,430.26c9.74,20.5,13,39,16,59.5c0,22.5-11.07,43.96-26.41,51.5c-21.59,15-49.14,10.18-54.84,9
	c-33.29-10.29-9.6-24.68,19.5-31.5c6.99-2.13,27.95-6.5,41.24-29C526.91,468.76,512.95,429,519,430.26z"/>
</svg>
