<svg width="30" height="31" viewBox="0 0 30 31" fill="none" xmlns="http://www.w3.org/2000/svg">
<path fill-rule="evenodd" clip-rule="evenodd" d="M5.15379 6.77253C5.00007 7.54532 5.00007 8.47463 5.00007 10.3333V13.3849C5.00007 14.7738 5.00007 15.4682 4.88391 16.1424C4.79365 16.6663 4.65141 17.1798 4.4593 17.6754C4.21204 18.3133 3.85475 18.9088 3.14018 20.0998L1.81752 22.3043C1.01178 23.6472 0.608917 24.3187 0.896146 24.826C1.18338 25.3333 1.96642 25.3333 3.53252 25.3333H26.4677C28.0338 25.3333 28.8169 25.3333 29.1041 24.8259C29.3913 24.3186 28.9884 23.6472 28.1827 22.3043L26.86 20.0998L26.86 20.0998C26.1454 18.9088 25.7881 18.3134 25.5409 17.6754C25.3487 17.1798 25.2065 16.6663 25.1162 16.1424C25.0001 15.4682 25.0001 14.7737 25.0001 13.3848V12.2836C25.0001 12.1169 25.0001 12.0336 24.95 11.9888C24.9 11.9441 24.8125 11.9539 24.6376 11.9736C24.4831 11.991 24.326 11.9999 24.1668 11.9999C21.8656 11.9999 20.0001 10.1344 20.0001 7.83325C20.0001 5.91619 21.2948 4.30151 23.0575 3.81587C23.2768 3.75545 23.3865 3.72524 23.4114 3.64828C23.4363 3.57131 23.3709 3.48982 23.24 3.32684C22.0863 1.88933 20.4457 0.861907 18.5608 0.48697C17.788 0.333252 16.8587 0.333252 15.0001 0.333252C13.1415 0.333252 12.2121 0.333252 11.4393 0.48697C8.26582 1.11822 5.78504 3.599 5.15379 6.77253Z" fill="#B3CD98"/>
<circle cx="24.1665" cy="7.83325" r="2.5" fill="white"/>
<path d="M19.0165 26.9999C19.0993 26.9999 19.1669 27.0671 19.1623 27.1499C19.1156 27.9794 18.6832 28.7673 17.9461 29.3569C17.1647 29.9821 16.1049 30.3333 14.9998 30.3333C13.8948 30.3333 12.835 29.9821 12.0536 29.3569C11.3164 28.7673 10.884 27.9794 10.8374 27.1499C10.8327 27.0671 10.9003 26.9999 10.9832 26.9999L14.9998 26.9999L19.0165 26.9999Z" fill="#B3CD98"/>
</svg>
