<svg width="355" height="76" viewBox="0 0 355 76" fill="none" xmlns="http://www.w3.org/2000/svg">
<path d="M122.624 47L120.72 42.016H110.892L108.988 47H107.42L115.036 27.4H116.604L124.192 47H122.624ZM111.452 40.616H120.188L115.82 29.22L111.452 40.616ZM126.765 47V26.56H128.165V47H126.765ZM132.48 47V26.56H133.88V47H132.48ZM144.495 32.692C146.548 32.692 148.21 33.42 149.479 34.876C150.767 36.332 151.411 38.0587 151.411 40.056C151.411 40.1307 151.402 40.2427 151.383 40.392C151.383 40.5413 151.383 40.6533 151.383 40.728H138.699C138.867 42.296 139.492 43.5653 140.575 44.536C141.676 45.488 143.03 45.964 144.635 45.964C145.755 45.964 146.735 45.7307 147.575 45.264C148.415 44.7973 149.05 44.1813 149.479 43.416L150.711 44.144C150.132 45.1147 149.311 45.8893 148.247 46.468C147.183 47.028 145.97 47.308 144.607 47.308C142.46 47.308 140.696 46.6267 139.315 45.264C137.934 43.8827 137.243 42.128 137.243 40C137.243 37.9093 137.915 36.1733 139.259 34.792C140.622 33.392 142.367 32.692 144.495 32.692ZM144.495 34.036C142.908 34.036 141.583 34.5307 140.519 35.52C139.455 36.5093 138.848 37.788 138.699 39.356H149.955C149.806 37.6947 149.208 36.3973 148.163 35.464C147.136 34.512 145.914 34.036 144.495 34.036ZM156.083 35.744C156.923 33.784 158.482 32.804 160.759 32.804V34.148C159.434 34.148 158.323 34.5773 157.427 35.436C156.531 36.276 156.083 37.536 156.083 39.216V47H154.683V33H156.083V35.744ZM175.182 33H176.582V46.328C176.582 48.3627 175.919 49.968 174.594 51.144C173.268 52.32 171.607 52.908 169.61 52.908C168.004 52.908 166.632 52.6093 165.494 52.012C164.355 51.4147 163.524 50.5933 163.002 49.548L164.234 48.848C165.13 50.6587 166.922 51.564 169.61 51.564C171.346 51.564 172.708 51.088 173.698 50.136C174.687 49.2027 175.182 47.9333 175.182 46.328V43.752C174.603 44.8533 173.782 45.7213 172.718 46.356C171.672 46.9907 170.487 47.308 169.162 47.308C167.146 47.308 165.428 46.608 164.01 45.208C162.61 43.7893 161.91 42.0533 161.91 40C161.91 37.9467 162.61 36.22 164.01 34.82C165.428 33.4013 167.146 32.692 169.162 32.692C170.487 32.692 171.672 33.0093 172.718 33.644C173.782 34.2787 174.603 35.1467 175.182 36.248V33ZM165.018 44.228C166.175 45.3853 167.584 45.964 169.246 45.964C170.907 45.964 172.307 45.3853 173.446 44.228C174.603 43.0707 175.182 41.6613 175.182 40C175.182 38.3387 174.603 36.9293 173.446 35.772C172.307 34.6147 170.907 34.036 169.246 34.036C167.584 34.036 166.175 34.6147 165.018 35.772C163.879 36.9293 163.31 38.3387 163.31 40C163.31 41.6613 163.879 43.0707 165.018 44.228ZM191.154 33H192.666L186.618 48.288C186.077 49.6693 185.311 50.752 184.322 51.536C183.333 52.3387 182.25 52.6933 181.074 52.6V51.284C181.97 51.3587 182.773 51.0973 183.482 50.5C184.21 49.9213 184.798 49.0907 185.246 48.008L185.554 47.252L179.114 33H180.626L186.282 45.46L191.154 33ZM194.4 46.916C194.157 47.1587 193.858 47.28 193.504 47.28C193.149 47.28 192.85 47.1587 192.608 46.916C192.365 46.6733 192.244 46.3747 192.244 46.02C192.244 45.6653 192.365 45.3667 192.608 45.124C192.85 44.8813 193.149 44.76 193.504 44.76C193.858 44.76 194.157 44.8813 194.4 45.124C194.642 45.3667 194.764 45.6653 194.764 46.02C194.764 46.3747 194.642 46.6733 194.4 46.916ZM205.037 32.692C206.698 32.692 208.014 33.2053 208.985 34.232C209.974 35.24 210.469 36.5933 210.469 38.292V47H209.041V38.292C209.041 36.9853 208.677 35.9493 207.949 35.184C207.239 34.4187 206.231 34.036 204.925 34.036C203.487 34.036 202.311 34.512 201.397 35.464C200.482 36.416 200.025 37.7973 200.025 39.608V47H198.625V33H200.025V35.66C201.033 33.6813 202.703 32.692 205.037 32.692ZM220.729 32.692C222.783 32.692 224.444 33.42 225.713 34.876C227.001 36.332 227.645 38.0587 227.645 40.056C227.645 40.1307 227.636 40.2427 227.617 40.392C227.617 40.5413 227.617 40.6533 227.617 40.728H214.933C215.101 42.296 215.727 43.5653 216.809 44.536C217.911 45.488 219.264 45.964 220.869 45.964C221.989 45.964 222.969 45.7307 223.809 45.264C224.649 44.7973 225.284 44.1813 225.713 43.416L226.945 44.144C226.367 45.1147 225.545 45.8893 224.481 46.468C223.417 47.028 222.204 47.308 220.841 47.308C218.695 47.308 216.931 46.6267 215.549 45.264C214.168 43.8827 213.477 42.128 213.477 40C213.477 37.9093 214.149 36.1733 215.493 34.792C216.856 33.392 218.601 32.692 220.729 32.692ZM220.729 34.036C219.143 34.036 217.817 34.5307 216.753 35.52C215.689 36.5093 215.083 37.788 214.933 39.356H226.189C226.04 37.6947 225.443 36.3973 224.397 35.464C223.371 34.512 222.148 34.036 220.729 34.036ZM237.676 34.372H233.504V43.472C233.504 44.2747 233.653 44.8533 233.952 45.208C234.25 45.5627 234.708 45.768 235.324 45.824C235.94 45.8613 236.724 45.8333 237.676 45.74V47C235.79 47.28 234.381 47.1493 233.448 46.608C232.533 46.0667 232.076 45.0213 232.076 43.472V34.372H228.996V33H232.076V29.5L233.504 29.08V33H237.676V34.372Z" fill="white"/>
<path d="M24.1616 62.0322C25.2731 59.397 27.3652 55.6086 31.1726 52.7436C34.5666 50.1885 37.8183 49.4991 41.0545 48.8118C45.3638 47.8969 49.0232 47.9875 51.4903 48.2279C50.8903 49.7352 47.2348 58.5305 38.1355 61.9352C31.7207 64.3343 26.1576 62.7258 24.1616 62.0322Z" stroke="#F8F1F4" stroke-miterlimit="10"/>
<path d="M19.2102 65.1505C24.2021 49.3034 31.0401 43.1855 36.5012 40.5734C45.7812 36.1357 53.546 40.137 60.2917 34.0528C65.9912 28.9131 67.02 20.0082 67.0835 13.7363" stroke="#F8F1F4" stroke-miterlimit="10"/>
<path d="M67.0873 12.8384C67.8949 15.2269 72.7234 30.2857 65.2471 45.7639C57.9188 60.9364 44.2467 65.1676 40.3567 66.1711C30.842 68.6229 22.8965 66.4451 19.2102 65.1507" stroke="#F8F1F4" stroke-miterlimit="10"/>
<path d="M19.2103 65.1503C18.9872 48.5842 23.4061 40.8957 27.6904 36.9513C38.878 26.6507 57.0785 34.1875 64.1453 22.582C66.3893 18.8969 66.6297 14.7185 66.4989 11.8345C68.168 14.592 74.8329 26.2839 72.2408 41.2077C71.6505 44.6103 69.9314 51.9067 64.476 58.7773C56.1747 69.2296 45.3102 71.03 42.9161 71.3652C30.4632 73.1044 21.4024 66.7778 19.2103 65.1503Z" stroke="#F8F1F4" stroke-miterlimit="10"/>
<path d="M76 33.8082C76 56.5154 59.209 74.9176 38.4971 74.9176C17.791 74.9176 1 56.5154 1 33.8082C1 22.2237 5.36697 11.7609 12.401 4.29791C5.54773 16.0889 1.03846 31.369 5.66503 46.0103C7.03608 50.3511 9.89739 56.8295 16.3988 63.213C16.5084 54.112 18.1064 42.1376 25.8192 34.5966C37.8087 22.871 54.6516 31.5524 61.505 20.4718C64.8701 15.0243 62.9414 9.45452 62.2434 2C70.6408 9.52408 76 20.982 76 33.8082Z" stroke="#F8F1F4" stroke-miterlimit="10"/>
</svg>
