<svg width="19" height="31" viewBox="0 0 19 31" fill="none" xmlns="http://www.w3.org/2000/svg">
<path d="M7.35422 21.595C7.35422 20.3923 7.61389 19.2717 8.13322 18.233C8.65255 17.1943 9.28122 16.306 10.0192 15.568C10.7572 14.83 11.4952 14.133 12.2332 13.477C12.9712 12.7937 13.5999 12.0557 14.1192 11.263C14.6386 10.443 14.8982 9.582 14.8982 8.68C14.8982 7.31333 14.4199 6.27467 13.4632 5.564C12.5339 4.826 11.3176 4.457 9.81422 4.457C6.80755 4.457 4.88055 5.78267 4.03322 8.434L0.794219 6.63C1.47755 4.71666 2.63922 3.268 4.27922 2.284C5.91922 1.27266 7.77789 0.766998 9.85522 0.766998C12.2879 0.766998 14.3652 1.45033 16.0872 2.817C17.8366 4.18367 18.7112 6.08333 18.7112 8.516C18.7112 9.664 18.4516 10.7437 17.9322 11.755C17.4129 12.7663 16.7842 13.641 16.0462 14.379C15.3082 15.117 14.5702 15.8413 13.8322 16.552C13.0942 17.2353 12.4656 18.0143 11.9462 18.889C11.4269 19.7363 11.1672 20.6383 11.1672 21.595H7.35422ZM9.24022 30.451C8.50222 30.451 7.87355 30.1913 7.35422 29.672C6.83489 29.1527 6.57522 28.524 6.57522 27.786C6.57522 27.048 6.83489 26.4193 7.35422 25.9C7.87355 25.3807 8.50222 25.121 9.24022 25.121C10.0056 25.121 10.6342 25.3807 11.1262 25.9C11.6456 26.4193 11.9052 27.048 11.9052 27.786C11.9052 28.524 11.6456 29.1527 11.1262 29.672C10.6342 30.1913 10.0056 30.451 9.24022 30.451Z" fill="#B3CD98"/>
</svg>
